<svg width="254" height="66" viewBox="0 0 254 66" fill="none" xmlns="http://www.w3.org/2000/svg">
<path d="M38.6346 1.1077H17.4846L1 18.5985V38.8509L17.4846 55.1143H38.6346L54.8082 38.8509V18.5985L38.6346 1.1077Z" fill="#085778" stroke="#085778" stroke-linejoin="round"/>
<path d="M14.0338 14.4118H8.86243V26.3659H28.9788L46.9401 14.4118H37.9098L25.8004 22.3974H14.0338V14.4118Z" fill="white" stroke="white" stroke-linejoin="round"/>
<path d="M14.0338 42.1512H8.86243V30.197H28.9788L46.9401 42.1512H37.9098L25.8004 34.1656H14.0338V42.1512Z" fill="white" stroke="white" stroke-linejoin="round"/>
<path d="M47.925 1.1077H42.5352L58.2379 18.2569H64.0196L47.925 1.1077Z" fill="#FC7700" stroke="#FC7700" stroke-linejoin="round"/>
<path d="M47.925 55.1143H42.5352L58.2379 39.0165H64.0196L47.925 55.1143Z" fill="#16890A" stroke="#16890A" stroke-linejoin="round"/>
<path d="M76.24 37.8459V17.0419H81.336V25.8899L87.916 17.0419H93.572L85.872 27.0659L84.668 27.9899L80.776 32.6099L81.336 29.5299V37.8459H76.24ZM87.216 36.1939C86.8707 35.5312 86.5207 34.8919 86.166 34.2759C85.8113 33.6599 85.4567 33.0625 85.102 32.4839C84.7567 31.8959 84.402 31.3265 84.038 30.7759C83.6833 30.2159 83.324 29.6699 82.96 29.1379L84.836 27.0939L86.32 25.4139C86.5907 25.7405 86.9267 26.2119 87.328 26.8279C87.7293 27.4345 88.168 28.1345 88.644 28.9279C89.1293 29.7119 89.6287 30.5379 90.142 31.4059C90.6553 32.2645 91.1593 33.1185 91.654 33.9679C92.1487 34.8172 92.6107 35.6059 93.04 36.3339C93.1427 36.5019 93.2407 36.6699 93.334 36.8379C93.4367 37.0059 93.5347 37.1739 93.628 37.3419C93.7307 37.5099 93.8333 37.6779 93.936 37.8459H88.084C87.972 37.6592 87.8553 37.4445 87.734 37.2019C87.6127 36.9592 87.44 36.6232 87.216 36.1939ZM99.1689 37.8459H93.7089L100.961 16.9019H106.869L114.177 37.8459H108.661L104.489 23.8179L103.817 21.1019L103.117 23.8179L99.1689 37.8459ZM98.2449 33.9539L98.8329 30.3139H108.381L108.941 33.9539H98.2449ZM121.37 37.8459H116.162V17.0419C116.358 17.0419 116.554 17.0419 116.75 17.0419C116.955 17.0419 117.156 17.0419 117.352 17.0419C117.557 17.0419 117.758 17.0419 117.954 17.0419C118.701 17.0419 119.559 17.0045 120.53 16.9299C121.51 16.8552 122.742 16.8179 124.226 16.8179C125.141 16.8179 126.055 16.9205 126.97 17.1259C127.885 17.3219 128.72 17.6672 129.476 18.1619C130.232 18.6472 130.839 19.3192 131.296 20.1779C131.753 21.0365 131.982 22.1192 131.982 23.4259C131.982 24.8445 131.744 26.0159 131.268 26.9399C130.801 27.8545 130.153 28.5639 129.322 29.0679C128.491 29.5625 127.53 29.8939 126.438 30.0619C126.074 30.1272 125.71 30.1925 125.346 30.2579C124.982 30.3232 124.497 30.3792 123.89 30.4259C123.293 30.4632 122.453 30.4819 121.37 30.4819V37.8459ZM121.37 26.8699C121.557 26.8979 121.809 26.9212 122.126 26.9399C122.443 26.9585 122.765 26.9725 123.092 26.9819C123.419 26.9819 123.694 26.9819 123.918 26.9819C124.982 26.9819 125.757 26.6459 126.242 25.9739C126.727 25.2925 126.97 24.4712 126.97 23.5099C126.97 22.9965 126.877 22.5112 126.69 22.0539C126.513 21.5872 126.177 21.2092 125.682 20.9199C125.197 20.6305 124.497 20.4859 123.582 20.4859C123.209 20.4859 122.826 20.5092 122.434 20.5559C122.051 20.5932 121.697 20.6539 121.37 20.7379V26.8699ZM127.642 37.8459C127.53 37.7059 127.423 37.5379 127.32 37.3419C127.227 37.1365 127.082 36.8099 126.886 36.3619C126.606 35.7365 126.354 35.0832 126.13 34.4019C125.906 33.7112 125.677 33.0672 125.444 32.4699C125.22 31.8725 124.959 31.3872 124.66 31.0139C124.361 30.6312 123.993 30.4352 123.554 30.4259L124.758 29.4739L128.062 29.0259C128.585 29.2592 129.037 29.6419 129.42 30.1739C129.812 30.7059 130.167 31.3219 130.484 32.0219C130.811 32.7125 131.133 33.4359 131.45 34.1919C131.767 34.9385 132.122 35.6525 132.514 36.3339C132.654 36.5859 132.799 36.8379 132.948 37.0899C133.097 37.3419 133.242 37.5939 133.382 37.8459H127.642ZM134.676 27.5419C134.676 25.6192 134.951 23.9765 135.502 22.6139C136.053 21.2512 136.818 20.1452 137.798 19.2959C138.778 18.4372 139.917 17.8119 141.214 17.4199C142.521 17.0185 143.925 16.8179 145.428 16.8179C146.445 16.8179 147.299 16.8692 147.99 16.9719C148.681 17.0652 149.292 17.1772 149.824 17.3079C150.356 17.4292 150.888 17.5365 151.42 17.6299L151.28 21.9979C150.739 21.7179 150.011 21.4659 149.096 21.2419C148.191 21.0179 147.043 20.9059 145.652 20.9059C144.448 20.9059 143.421 21.1579 142.572 21.6619C141.732 22.1565 141.088 22.8752 140.64 23.8179C140.192 24.7512 139.968 25.8712 139.968 27.1779C139.968 28.5219 140.15 29.7212 140.514 30.7759C140.887 31.8305 141.429 32.6612 142.138 33.2679C142.847 33.8745 143.72 34.1779 144.756 34.1779C145.484 34.1779 146.086 34.1405 146.562 34.0659C147.038 33.9819 147.444 33.8792 147.78 33.7579V29.5299L148.284 30.1459L144.812 29.8939V26.1699H152.54V36.6699C152.139 36.6792 151.728 36.7585 151.308 36.9079C150.888 37.0479 150.403 37.2112 149.852 37.3979C149.301 37.5752 148.625 37.7292 147.822 37.8599C147.019 37.9999 146.025 38.0699 144.84 38.0699C142.777 38.0699 140.985 37.6545 139.464 36.8239C137.943 35.9932 136.762 34.7939 135.922 33.2259C135.091 31.6485 134.676 29.7539 134.676 27.5419ZM164.925 38.0699C162.872 38.1072 161.117 37.6919 159.661 36.8239C158.215 35.9465 157.113 34.7005 156.357 33.0859C155.611 31.4619 155.256 29.5485 155.293 27.3459C155.34 24.8819 155.793 22.8892 156.651 21.3679C157.519 19.8372 158.7 18.7125 160.193 17.9939C161.687 17.2659 163.395 16.8739 165.317 16.8179C167.287 16.7619 168.976 17.1632 170.385 18.0219C171.795 18.8712 172.868 20.0985 173.605 21.7039C174.352 23.3092 174.707 25.2085 174.669 27.4019C174.623 29.8659 174.184 31.8772 173.353 33.4359C172.523 34.9945 171.384 36.1472 169.937 36.8939C168.491 37.6405 166.82 38.0325 164.925 38.0699ZM165.009 34.3179C166.353 34.3179 167.413 33.7765 168.187 32.6939C168.962 31.6019 169.349 29.7912 169.349 27.2619C169.349 25.9552 169.2 24.8072 168.901 23.8179C168.603 22.8285 168.15 22.0585 167.543 21.5079C166.937 20.9572 166.167 20.6819 165.233 20.6819C164.384 20.6819 163.609 20.8919 162.909 21.3119C162.209 21.7319 161.649 22.4365 161.229 23.4259C160.819 24.4152 160.613 25.7685 160.613 27.4859C160.613 28.8112 160.777 29.9872 161.103 31.0139C161.43 32.0405 161.915 32.8479 162.559 33.4359C163.213 34.0239 164.029 34.3179 165.009 34.3179ZM178.095 37.8459V17.0419H183.191V25.8899L189.771 17.0419H195.427L187.727 27.0659L186.523 27.9899L182.631 32.6099L183.191 29.5299V37.8459H178.095ZM189.071 36.1939C188.726 35.5312 188.376 34.8919 188.021 34.2759C187.667 33.6599 187.312 33.0625 186.957 32.4839C186.612 31.8959 186.257 31.3265 185.893 30.7759C185.539 30.2159 185.179 29.6699 184.815 29.1379L186.691 27.0939L188.175 25.4139C188.446 25.7405 188.782 26.2119 189.183 26.8279C189.585 27.4345 190.023 28.1345 190.499 28.9279C190.985 29.7119 191.484 30.5379 191.997 31.4059C192.511 32.2645 193.015 33.1185 193.509 33.9679C194.004 34.8172 194.466 35.6059 194.895 36.3339C194.998 36.5019 195.096 36.6699 195.189 36.8379C195.292 37.0059 195.39 37.1739 195.483 37.3419C195.586 37.5099 195.689 37.6779 195.791 37.8459H189.939C189.827 37.6592 189.711 37.4445 189.589 37.2019C189.468 36.9592 189.295 36.6232 189.071 36.1939ZM201.024 37.8459H195.564L202.816 16.9019H208.724L216.032 37.8459H210.516L206.344 23.8179L205.672 21.1019L204.972 23.8179L201.024 37.8459ZM200.1 33.9539L200.688 30.3139H210.236L210.796 33.9539H200.1ZM223.225 37.8459H218.017V17.0419C218.213 17.0419 218.409 17.0419 218.605 17.0419C218.811 17.0419 219.011 17.0419 219.207 17.0419C219.413 17.0419 219.613 17.0419 219.809 17.0419C220.556 17.0419 221.415 17.0045 222.385 16.9299C223.365 16.8552 224.597 16.8179 226.081 16.8179C226.996 16.8179 227.911 16.9205 228.825 17.1259C229.74 17.3219 230.575 17.6672 231.331 18.1619C232.087 18.6472 232.694 19.3192 233.151 20.1779C233.609 21.0365 233.837 22.1192 233.837 23.4259C233.837 24.8445 233.599 26.0159 233.123 26.9399C232.657 27.8545 232.008 28.5639 231.177 29.0679C230.347 29.5625 229.385 29.8939 228.293 30.0619C227.929 30.1272 227.565 30.1925 227.201 30.2579C226.837 30.3232 226.352 30.3792 225.745 30.4259C225.148 30.4632 224.308 30.4819 223.225 30.4819V37.8459ZM223.225 26.8699C223.412 26.8979 223.664 26.9212 223.981 26.9399C224.299 26.9585 224.621 26.9725 224.947 26.9819C225.274 26.9819 225.549 26.9819 225.773 26.9819C226.837 26.9819 227.612 26.6459 228.097 25.9739C228.583 25.2925 228.825 24.4712 228.825 23.5099C228.825 22.9965 228.732 22.5112 228.545 22.0539C228.368 21.5872 228.032 21.2092 227.537 20.9199C227.052 20.6305 226.352 20.4859 225.437 20.4859C225.064 20.4859 224.681 20.5092 224.289 20.5559C223.907 20.5932 223.552 20.6539 223.225 20.7379V26.8699ZM229.497 37.8459C229.385 37.7059 229.278 37.5379 229.175 37.3419C229.082 37.1365 228.937 36.8099 228.741 36.3619C228.461 35.7365 228.209 35.0832 227.985 34.4019C227.761 33.7112 227.533 33.0672 227.299 32.4699C227.075 31.8725 226.814 31.3872 226.515 31.0139C226.217 30.6312 225.848 30.4352 225.409 30.4259L226.613 29.4739L229.917 29.0259C230.44 29.2592 230.893 29.6419 231.275 30.1739C231.667 30.7059 232.022 31.3219 232.339 32.0219C232.666 32.7125 232.988 33.4359 233.305 34.1919C233.623 34.9385 233.977 35.6525 234.369 36.3339C234.509 36.5859 234.654 36.8379 234.803 37.0899C234.953 37.3419 235.097 37.5939 235.237 37.8459H229.497ZM241.291 37.8459V21.0459H235.747V17.0419H252.099V21.0459H246.555V37.8459H241.291Z" fill="#085778"/>
<path d="M190.256 61.4161C190.064 61.3628 189.909 61.3148 189.792 61.2721C189.675 61.2401 189.616 61.2241 189.616 61.2241C189.637 61.1708 189.627 61.1228 189.584 61.0801C189.552 61.0375 189.477 61.0108 189.36 61.0001C189.2 60.8935 189.035 60.7441 188.864 60.5521C188.693 60.3601 188.544 60.1628 188.416 59.9601C188.288 59.7575 188.203 59.6081 188.16 59.5121C188.085 59.3521 188.091 59.2561 188.176 59.2241C188.261 59.1815 188.363 59.1335 188.48 59.0801C188.597 58.9948 188.72 58.9308 188.848 58.8881C188.987 58.8455 189.099 58.9148 189.184 59.0961C189.323 59.3415 189.536 59.5495 189.824 59.7201C190.123 59.8908 190.459 59.9921 190.832 60.0241C191.216 60.0561 191.6 59.9921 191.984 59.8321C192.24 59.7148 192.379 59.5548 192.4 59.3521C192.421 59.1388 192.341 58.8935 192.16 58.6161C192.128 58.5308 192.08 58.4615 192.016 58.4081C191.963 58.3548 191.877 58.2855 191.76 58.2001C191.653 58.1148 191.499 57.9761 191.296 57.7841C191.136 57.7095 190.987 57.6401 190.848 57.5761C190.72 57.5121 190.581 57.4428 190.432 57.3681C190.261 57.2828 190.069 57.1655 189.856 57.0161C189.643 56.8561 189.445 56.6855 189.264 56.5041C189.083 56.3121 188.944 56.1308 188.848 55.9601C188.677 55.8001 188.571 55.5815 188.528 55.3041C188.485 55.0161 188.491 54.7121 188.544 54.3921C188.608 54.0721 188.709 53.7841 188.848 53.5281C188.912 53.3788 189.029 53.1868 189.2 52.9521C189.371 52.7068 189.563 52.4561 189.776 52.2001C189.989 51.9441 190.192 51.7148 190.384 51.5121C190.587 51.2988 190.747 51.1548 190.864 51.0801C190.949 50.9948 191.04 50.9095 191.136 50.8241C191.232 50.7281 191.28 50.6801 191.28 50.6801C191.291 50.6268 191.307 50.6001 191.328 50.6001C191.36 50.6001 191.376 50.6001 191.376 50.6001C191.429 50.5681 191.547 50.5148 191.728 50.4401C191.909 50.3655 192.107 50.2268 192.32 50.0241C193.035 49.6828 193.643 49.4535 194.144 49.3361C194.645 49.2081 195.04 49.1441 195.328 49.1441C195.595 49.1548 195.856 49.2295 196.112 49.3681C196.368 49.4961 196.587 49.6615 196.768 49.8641C196.96 50.0668 197.072 50.2961 197.104 50.5521C197.179 50.8081 197.141 51.1175 196.992 51.4801C196.853 51.8321 196.656 52.1681 196.4 52.4881C196.155 52.7975 195.899 53.0268 195.632 53.1761C195.333 53.3041 195.077 53.3201 194.864 53.2241C194.661 53.1281 194.565 52.9788 194.576 52.7761C194.576 52.6908 194.603 52.5895 194.656 52.4721C194.72 52.3548 194.885 52.1468 195.152 51.8481C195.493 51.3468 195.675 50.9895 195.696 50.7761C195.717 50.5628 195.621 50.4401 195.408 50.4081C195.344 50.3868 195.221 50.3921 195.04 50.4241C194.859 50.4561 194.661 50.4988 194.448 50.5521C194.245 50.5948 194.064 50.6428 193.904 50.6961C193.755 50.7495 193.68 50.7868 193.68 50.8081C193.68 50.8081 193.68 50.8241 193.68 50.8561C193.68 50.8881 193.659 50.8988 193.616 50.8881C193.595 50.8881 193.52 50.9255 193.392 51.0001C193.275 51.0641 193.131 51.1495 192.96 51.2561C192.789 51.3628 192.619 51.4748 192.448 51.5921C192.288 51.6988 192.149 51.7948 192.032 51.8801C191.915 51.9655 191.851 52.0188 191.84 52.0401C191.819 52.1575 191.696 52.2641 191.472 52.3601C191.259 52.4881 191.072 52.6695 190.912 52.9041C190.752 53.1388 190.565 53.4375 190.352 53.8001C190.171 54.0455 190.043 54.3121 189.968 54.6001C189.893 54.8775 189.893 55.1015 189.968 55.2721C190.021 55.4428 190.165 55.6135 190.4 55.7841C190.645 55.9441 190.976 56.1468 191.392 56.3921C191.755 56.5948 192.096 56.8081 192.416 57.0321C192.736 57.2561 193.008 57.4748 193.232 57.6881C193.456 57.8908 193.6 58.0615 193.664 58.2001C193.792 58.3815 193.867 58.5895 193.888 58.8241C193.92 59.0588 193.92 59.2881 193.888 59.5121C193.867 59.7255 193.835 59.9015 193.792 60.0401C193.717 60.2108 193.6 60.3921 193.44 60.5841C193.291 60.7761 193.152 60.8668 193.024 60.8561C192.907 60.8881 192.816 60.9255 192.752 60.9681C192.699 61.0108 192.635 61.0481 192.56 61.0801C192.485 61.1228 192.309 61.1708 192.032 61.2241C191.755 61.2881 191.451 61.3361 191.12 61.3681C190.789 61.4108 190.501 61.4268 190.256 61.4161ZM195.882 60.1041C195.797 60.0188 195.733 59.8908 195.69 59.7201C195.658 59.5495 195.648 59.3841 195.658 59.2241C195.669 59.0535 195.696 58.9255 195.738 58.8401C195.738 58.7548 195.749 58.6908 195.77 58.6481C195.802 58.5948 195.813 58.5468 195.802 58.5041C195.792 58.4615 195.802 58.3868 195.834 58.2801C195.866 58.1735 195.898 58.0721 195.93 57.9761C196.005 57.8055 196.09 57.5868 196.186 57.3201C196.282 57.0428 196.378 56.7655 196.474 56.4881C196.57 56.2001 196.65 55.9548 196.714 55.7521C196.778 55.5388 196.816 55.4108 196.826 55.3681C196.826 55.2401 196.912 55.1708 197.082 55.1601C197.21 55.1175 197.365 55.1708 197.546 55.3201C197.728 55.4695 197.872 55.6295 197.978 55.8001C198.064 55.8855 198.096 55.9975 198.074 56.1361C198.053 56.2748 197.984 56.4721 197.866 56.7281C197.824 56.8135 197.77 56.9575 197.706 57.1601C197.653 57.3521 197.616 57.5121 197.594 57.6401C197.552 57.7255 197.498 57.8481 197.434 58.0081C197.381 58.1575 197.333 58.3015 197.29 58.4401C197.269 58.4935 197.248 58.5948 197.226 58.7441C197.205 58.8828 197.178 59.0268 197.146 59.1761C197.114 59.3255 197.072 59.4428 197.018 59.5281C196.922 59.9655 196.752 60.2215 196.506 60.2961C196.272 60.3708 196.064 60.3068 195.882 60.1041ZM197.61 53.6881C197.493 53.6028 197.402 53.5015 197.338 53.3841C197.285 53.2561 197.253 53.1441 197.242 53.0481C197.242 52.9521 197.253 52.8935 197.274 52.8721C197.381 52.7548 197.472 52.6001 197.546 52.4081C197.632 52.2161 197.722 52.0401 197.818 51.8801C197.84 51.8481 197.866 51.8055 197.898 51.7521C197.941 51.6881 197.984 51.6508 198.026 51.6401C198.154 51.5548 198.33 51.5601 198.554 51.6561C198.789 51.7521 198.96 51.8855 199.066 52.0561C199.162 52.2588 199.189 52.4668 199.146 52.6801C199.114 52.8935 199.002 53.1175 198.81 53.3521C198.65 53.5655 198.448 53.7041 198.202 53.7681C197.957 53.8215 197.76 53.7948 197.61 53.6881ZM206.431 59.9921C206.356 59.9708 206.239 59.9015 206.079 59.7841C205.919 59.6668 205.775 59.4908 205.647 59.2561C205.53 59.0215 205.476 58.7175 205.487 58.3441C205.498 58.0241 205.519 57.8001 205.551 57.6721C205.594 57.5335 205.578 57.4588 205.503 57.4481C205.45 57.4375 205.343 57.4855 205.183 57.5921C205.023 57.6988 204.815 57.8695 204.559 58.1041C204.303 58.3388 203.994 58.6481 203.631 59.0321C203.503 59.1388 203.359 59.2721 203.199 59.4321C203.05 59.5815 202.895 59.6935 202.735 59.7681C202.586 59.8428 202.452 59.8268 202.335 59.7201L202.175 59.5761C202.1 59.5121 202.036 59.4268 201.983 59.3201C201.93 59.2135 201.914 59.1228 201.935 59.0481L202.383 57.8001C202.511 57.5228 202.596 57.3201 202.639 57.1921C202.692 57.0641 202.714 56.9841 202.703 56.9521C202.703 56.9201 202.676 56.9095 202.623 56.9201C202.559 56.9308 202.468 56.9895 202.351 57.0961C202.234 57.1921 202.154 57.2721 202.111 57.3361C202.068 57.3361 202.01 57.3788 201.935 57.4641C201.871 57.5495 201.807 57.6241 201.743 57.6881C201.679 57.7521 201.567 57.8748 201.407 58.0561C201.247 58.2268 201.076 58.4081 200.895 58.6001C200.756 58.7281 200.596 58.8988 200.415 59.1121C200.234 59.3255 200.074 59.5175 199.935 59.6881C199.796 59.8588 199.711 59.9441 199.679 59.9441C199.487 59.9335 199.311 59.8695 199.151 59.7521C199.002 59.6348 198.9 59.4908 198.847 59.3201C198.783 59.2028 198.778 58.9895 198.831 58.6801C198.884 58.3601 198.986 57.8535 199.135 57.1601C199.178 57.0001 199.215 56.8615 199.247 56.7441C199.29 56.6268 199.332 56.5095 199.375 56.3921C199.418 56.2748 199.466 56.1415 199.519 55.9921C199.583 55.8428 199.663 55.6615 199.759 55.4481C199.812 55.2988 199.834 55.1601 199.823 55.0321C199.812 54.8935 199.802 54.7815 199.791 54.6961C199.791 54.5361 199.839 54.4081 199.935 54.3121C200.042 54.2161 200.159 54.1521 200.287 54.1201C200.415 54.0775 200.516 54.0668 200.591 54.0881C200.89 54.1201 201.092 54.2268 201.199 54.4081C201.306 54.5895 201.364 54.7655 201.375 54.9361C201.386 55.0961 201.364 55.2401 201.311 55.3681C201.258 55.4961 201.215 55.6028 201.183 55.6881L201.007 56.1201C200.9 56.3655 200.82 56.5468 200.767 56.6641C200.724 56.7708 200.698 56.8455 200.687 56.8881C200.687 56.9201 200.687 56.9521 200.687 56.9841C200.698 57.0161 200.746 57.0001 200.831 56.9361C200.916 56.8721 201.018 56.7868 201.135 56.6801C201.263 56.5628 201.38 56.4615 201.487 56.3761C201.679 56.2161 201.882 56.0561 202.095 55.8961C202.319 55.7255 202.538 55.5761 202.751 55.4481C202.964 55.3201 203.14 55.2348 203.279 55.1921C203.46 55.2241 203.626 55.3148 203.775 55.4641C203.935 55.6135 204.036 55.7415 204.079 55.8481C204.132 56.0081 204.138 56.1521 204.095 56.2801C204.063 56.4081 204.036 56.5255 204.015 56.6321C204.004 56.6748 203.983 56.7548 203.951 56.8721C203.919 56.9895 203.887 57.1015 203.855 57.2081C203.823 57.3041 203.807 57.3521 203.807 57.3521C203.807 57.3521 203.839 57.3201 203.903 57.2561C203.967 57.1921 204.052 57.1175 204.159 57.0321C204.266 56.9361 204.372 56.8508 204.479 56.7761C205.012 56.3708 205.434 56.1148 205.743 56.0081C206.063 55.8908 206.335 55.9815 206.559 56.2801C206.687 56.3975 206.767 56.5575 206.799 56.7601C206.842 56.9628 206.863 57.2348 206.863 57.5761C206.874 57.7148 206.884 57.8695 206.895 58.0401C206.916 58.2108 206.938 58.3601 206.959 58.4881C206.991 58.6161 207.018 58.6961 207.039 58.7281C207.071 58.7708 207.13 58.8135 207.215 58.8561C207.3 58.8881 207.38 58.9148 207.455 58.9361C207.604 59.0108 207.684 59.1495 207.695 59.3521C207.716 59.5441 207.642 59.6935 207.471 59.8001C207.311 59.8961 207.14 59.9548 206.959 59.9761C206.788 59.9975 206.612 60.0028 206.431 59.9921ZM207.94 63.3361C207.791 63.3788 207.636 63.3415 207.476 63.2241C207.327 63.1068 207.21 62.9468 207.124 62.7441C207.05 62.5415 207.05 62.3335 207.124 62.1201C207.146 62.0561 207.178 61.9495 207.22 61.8001C207.263 61.6615 207.29 61.5388 207.3 61.4321C207.311 61.3575 207.343 61.2295 207.396 61.0481C207.45 60.8775 207.508 60.7068 207.572 60.5361C207.647 60.3655 207.706 60.2428 207.748 60.1681C207.812 60.0615 207.855 59.9388 207.876 59.8001C207.908 59.6615 207.924 59.5548 207.924 59.4801C207.946 59.4055 207.972 59.3201 208.004 59.2241C208.047 59.1281 208.09 59.0535 208.132 59.0001C208.154 58.9148 208.186 58.8241 208.228 58.7281C208.271 58.6215 208.319 58.5308 208.372 58.4561C208.394 58.3815 208.41 58.2908 208.42 58.1841C208.442 58.0775 208.474 58.0188 208.516 58.0081C208.527 57.9655 208.532 57.9228 208.532 57.8801C208.543 57.8375 208.564 57.7788 208.596 57.7041C208.618 57.5868 208.666 57.4161 208.74 57.1921C208.815 56.9681 208.906 56.7228 209.012 56.4561C209.13 56.1468 209.21 55.8801 209.252 55.6561C209.295 55.4215 209.236 55.2721 209.076 55.2081C208.991 55.1655 208.938 55.0695 208.916 54.9201C208.895 54.7601 208.906 54.6001 208.948 54.4401C208.991 54.2801 209.055 54.1841 209.14 54.1521C209.236 54.1095 209.354 54.0828 209.492 54.0721C209.631 54.0615 209.754 54.0615 209.86 54.0721C209.978 54.0721 210.031 54.0828 210.02 54.1041C210.02 54.1575 210.047 54.1895 210.1 54.2001C210.122 54.1681 210.164 54.2161 210.228 54.3441C210.303 54.4615 210.372 54.5948 210.436 54.7441C210.5 54.8935 210.532 54.9948 210.532 55.0481C210.511 55.0908 210.5 55.1175 210.5 55.1281C210.5 55.1281 210.522 55.1281 210.564 55.1281C210.564 55.1281 210.623 55.1015 210.74 55.0481C210.858 54.9841 210.98 54.9148 211.108 54.8401C211.247 54.7548 211.338 54.6908 211.38 54.6481C211.38 54.6481 211.407 54.6375 211.46 54.6161C211.524 54.5841 211.578 54.5468 211.62 54.5041C211.834 54.4188 212.063 54.4028 212.308 54.4561C212.564 54.5095 212.767 54.6055 212.916 54.7441C213.13 55.0108 213.29 55.3415 213.396 55.7361C213.514 56.1308 213.498 56.5148 213.348 56.8881C213.327 56.9415 213.279 57.0321 213.204 57.1601C213.14 57.2775 213.076 57.3895 213.012 57.4961C212.948 57.5921 212.916 57.6401 212.916 57.6401C212.671 58.0241 212.399 58.3441 212.1 58.6001C211.812 58.8561 211.498 59.0801 211.156 59.2721C211.05 59.3468 210.9 59.4161 210.708 59.4801C210.527 59.5441 210.356 59.5921 210.196 59.6241C210.047 59.6561 209.956 59.6615 209.924 59.6401C209.807 59.5548 209.7 59.3735 209.604 59.0961C209.551 59.2348 209.498 59.3735 209.444 59.5121C209.402 59.6401 209.375 59.7255 209.364 59.7681C209.354 59.8428 209.343 59.9068 209.332 59.9601C209.322 60.0028 209.295 60.0401 209.252 60.0721C209.252 60.0721 209.247 60.0935 209.236 60.1361C209.226 60.1788 209.188 60.2428 209.124 60.3281C209.018 60.6375 208.932 60.8775 208.868 61.0481C208.804 61.2295 208.751 61.3735 208.708 61.4801C208.676 61.5975 208.644 61.7201 208.612 61.8481C208.591 62.1361 208.522 62.4401 208.404 62.7601C208.298 63.0801 208.143 63.2721 207.94 63.3361ZM210.324 58.1361C210.367 58.1148 210.442 58.0775 210.548 58.0241C210.666 57.9708 210.794 57.9068 210.932 57.8321C211.071 57.7468 211.199 57.6668 211.316 57.5921C211.444 57.5068 211.535 57.4321 211.588 57.3681C211.674 57.2721 211.722 57.1975 211.732 57.1441C211.743 57.0801 211.77 56.9788 211.812 56.8401C211.844 56.7548 211.882 56.6588 211.924 56.5521C211.967 56.4455 212.004 56.3441 212.036 56.2481C212.079 56.1628 212.095 56.0775 212.084 55.9921C212.084 55.8961 212.052 55.8161 211.988 55.7521C211.946 55.7415 211.844 55.7575 211.684 55.8001C211.535 55.8428 211.359 55.9281 211.156 56.0561C210.964 56.1841 210.772 56.3708 210.58 56.6161C210.356 56.9041 210.207 57.1655 210.132 57.4001C210.058 57.6241 210.042 57.8055 210.084 57.9441C210.127 58.0721 210.207 58.1361 210.324 58.1361ZM214.243 60.8561C214.105 60.8028 213.993 60.7175 213.907 60.6001C213.822 60.4935 213.774 60.3335 213.763 60.1201C213.753 59.9815 213.758 59.7788 213.779 59.5121C213.801 59.2348 213.838 58.9575 213.891 58.6801C213.891 58.6588 213.891 58.6375 213.891 58.6161C213.902 58.5841 213.907 58.5628 213.907 58.5521C213.918 58.5095 213.929 58.4455 213.939 58.3601C213.95 58.2641 213.961 58.1895 213.971 58.1361C213.993 58.0721 214.003 58.0668 214.003 58.1201L214.099 57.6881C214.142 57.4961 214.19 57.2988 214.243 57.0961C214.297 56.8935 214.345 56.7175 214.387 56.5681C214.441 56.4081 214.473 56.3175 214.483 56.2961C214.483 56.2961 214.499 56.2375 214.531 56.1201C214.574 55.9921 214.617 55.8641 214.659 55.7361C214.83 55.2028 214.99 54.7601 215.139 54.4081C215.299 54.0561 215.438 53.8001 215.555 53.6401C215.566 53.6081 215.582 53.5708 215.603 53.5281C215.625 53.4748 215.641 53.4321 215.651 53.4001C215.651 53.2828 215.657 53.1975 215.667 53.1441C215.689 53.0908 215.715 53.0428 215.747 53.0001C215.769 52.9575 215.801 52.9041 215.843 52.8401C215.886 52.7655 215.934 52.6748 215.987 52.5681L216.051 52.3921C216.115 52.2535 216.195 52.0935 216.291 51.9121C216.387 51.7201 216.457 51.5761 216.499 51.4801C216.531 51.3841 216.595 51.2721 216.691 51.1441C216.787 51.0055 216.894 50.9148 217.011 50.8721L216.995 50.8561C217.049 50.7601 217.15 50.6855 217.299 50.6321C217.449 50.5681 217.571 50.5361 217.667 50.5361C217.817 50.5361 217.929 50.5788 218.003 50.6641C218.089 50.7495 218.131 50.8668 218.131 51.0161C218.131 51.1761 218.126 51.2935 218.115 51.3681C218.115 51.4321 218.078 51.5068 218.003 51.5921H218.019C218.041 51.5708 218.035 51.6028 218.003 51.6881C217.971 51.7735 217.945 51.8321 217.923 51.8641C217.902 51.9175 217.875 51.9761 217.843 52.0401C217.822 52.1041 217.795 52.1521 217.763 52.1841C217.731 52.2268 217.646 52.3761 217.507 52.6321C217.369 52.8775 217.214 53.1708 217.043 53.5121C216.873 53.8428 216.707 54.1681 216.547 54.4881C216.398 54.7975 216.291 55.0375 216.227 55.2081L216.147 55.4481C216.137 55.4908 216.131 55.5228 216.131 55.5441C216.099 55.6188 216.067 55.6935 216.035 55.7681C216.003 55.8428 215.971 55.9068 215.939 55.9601L215.683 56.9521L215.619 57.2881L215.475 57.6561L215.379 57.9601C215.358 58.0241 215.342 58.0935 215.331 58.1681C215.321 58.2428 215.299 58.2961 215.267 58.3281C215.267 58.3388 215.262 58.3548 215.251 58.3761C215.251 58.3868 215.251 58.3975 215.251 58.4081C215.209 58.5788 215.134 58.8188 215.027 59.1281C214.931 59.4375 214.873 59.7788 214.851 60.1521C214.851 60.1628 214.846 60.1735 214.835 60.1841C214.835 60.1948 214.835 60.2055 214.835 60.2161C214.803 60.4401 214.734 60.6108 214.627 60.7281C214.531 60.8561 214.403 60.8988 214.243 60.8561ZM218.591 60.6641C218.004 60.6641 217.551 60.4935 217.231 60.1521C216.922 59.8108 216.767 59.2881 216.767 58.5841C216.767 58.2001 216.836 57.7788 216.975 57.3201C217.124 56.8615 217.316 56.4135 217.551 55.9761C217.796 55.5388 218.063 55.1601 218.351 54.8401C218.639 54.5095 218.927 54.2801 219.215 54.1521C219.322 54.0988 219.434 54.0615 219.551 54.0401C219.679 54.0081 219.802 53.9921 219.919 53.9921C220.047 53.9921 220.186 54.0028 220.335 54.0241C220.495 54.0348 220.644 54.0668 220.783 54.1201C221.028 54.1948 221.242 54.3388 221.423 54.5521C221.615 54.7655 221.711 55.0748 221.711 55.4801C221.711 55.5868 221.7 55.7041 221.679 55.8321C221.658 55.9495 221.62 56.0668 221.567 56.1841C221.428 56.5361 221.215 56.8721 220.927 57.1921C220.65 57.5121 220.356 57.7361 220.047 57.8641C219.962 57.9068 219.876 57.9388 219.791 57.9601C219.716 57.9708 219.636 57.9761 219.551 57.9761C219.327 57.9761 219.124 57.9441 218.943 57.8801C218.772 57.8161 218.612 57.7308 218.463 57.6241L218.335 57.5121L218.255 57.6721C218.18 57.8748 218.127 58.0455 218.095 58.1841C218.074 58.3228 218.063 58.4241 218.063 58.4881C218.063 58.6161 218.068 58.7495 218.079 58.8881C218.09 59.0161 218.122 59.1228 218.175 59.2081C218.218 59.2615 218.271 59.3041 218.335 59.3361C218.41 59.3681 218.5 59.3841 218.607 59.3841C218.671 59.3841 218.73 59.3841 218.783 59.3841C218.847 59.3735 218.9 59.3628 218.943 59.3521C219.135 59.3095 219.29 59.2401 219.407 59.1441C219.535 59.0375 219.668 58.9468 219.807 58.8721L219.871 58.8401L219.855 58.7921C220.036 58.6961 220.159 58.6375 220.223 58.6161C220.287 58.5841 220.335 58.5575 220.367 58.5361C220.41 58.4935 220.458 58.4721 220.511 58.4721C220.66 58.4508 220.804 58.4935 220.943 58.6001C221.092 58.6961 221.167 58.8188 221.167 58.9681C221.167 59.0321 221.119 59.1335 221.023 59.2721C220.938 59.4108 220.826 59.5495 220.687 59.6881C220.559 59.8161 220.426 59.9175 220.287 59.9921C220.255 60.0028 220.223 60.0188 220.191 60.0401C220.159 60.0508 220.127 60.0668 220.095 60.0881H220.111C220.015 60.2161 219.919 60.2801 219.823 60.2801H219.695C219.652 60.3548 219.514 60.4348 219.279 60.5201C219.044 60.6161 218.815 60.6641 218.591 60.6641ZM219.423 56.8081C219.519 56.8081 219.604 56.7921 219.679 56.7601C219.764 56.7281 219.844 56.6908 219.919 56.6481C220.175 56.4668 220.34 56.2321 220.415 55.9441C220.49 55.6561 220.463 55.4375 220.335 55.2881C220.314 55.2561 220.287 55.2348 220.255 55.2241C220.223 55.2028 220.186 55.1921 220.143 55.1921C220.026 55.1921 219.892 55.2295 219.743 55.3041C219.604 55.3788 219.466 55.4855 219.327 55.6241C219.188 55.7628 219.06 55.9281 218.943 56.1201L218.735 56.4561C218.756 56.4455 218.772 56.4401 218.783 56.4401C218.804 56.4295 218.82 56.4241 218.831 56.4241C218.927 56.4241 218.991 56.4561 219.023 56.5201C219.055 56.5841 219.092 56.6481 219.135 56.7121C219.188 56.7761 219.284 56.8081 219.423 56.8081ZM235.394 61.1441C235.351 61.1868 235.25 61.1975 235.09 61.1761C234.93 61.1655 234.802 61.0908 234.706 60.9521C234.631 60.8028 234.588 60.6321 234.578 60.4401C234.567 60.2481 234.567 59.9815 234.578 59.6401C234.642 59.2668 234.748 58.7761 234.898 58.1681C235.047 57.5601 235.212 56.8828 235.394 56.1361C235.586 55.3788 235.778 54.6055 235.97 53.8161C236.066 53.4428 236.14 53.1281 236.194 52.8721C236.258 52.6161 236.3 52.4241 236.322 52.2961C236.354 52.1575 236.37 52.0881 236.37 52.0881C236.359 52.1095 236.343 52.1308 236.322 52.1521C236.311 52.1735 236.3 52.1948 236.29 52.2161C236.279 52.2375 236.268 52.2588 236.258 52.2801C236.258 52.2801 236.236 52.3175 236.194 52.3921C236.162 52.4668 236.087 52.5948 235.97 52.7761C235.884 52.9041 235.804 53.0535 235.73 53.2241C235.655 53.3948 235.527 53.6188 235.346 53.8961C235.175 54.2161 234.983 54.5841 234.77 55.0001C234.556 55.4161 234.375 55.7468 234.226 55.9921C234.151 56.1095 234.082 56.2108 234.018 56.2961C233.964 56.3815 233.927 56.4508 233.906 56.5041C233.863 56.6215 233.794 56.7655 233.698 56.9361C233.602 57.1068 233.49 57.2721 233.362 57.4321C233.298 57.5281 233.212 57.6401 233.106 57.7681C233.01 57.8961 232.924 58.0135 232.85 58.1201C232.775 58.2161 232.738 58.2641 232.738 58.2641C232.716 58.3281 232.647 58.4295 232.53 58.5681C232.412 58.7068 232.268 58.8615 232.098 59.0321C231.938 59.1921 231.772 59.3415 231.602 59.4801C231.228 59.7788 230.919 59.9655 230.674 60.0401C230.439 60.1148 230.167 60.0241 229.858 59.7681C229.719 59.5975 229.607 59.4268 229.522 59.2561C229.436 59.0748 229.394 58.8295 229.394 58.5201C229.394 58.2108 229.447 57.7788 229.554 57.2241C229.628 56.8721 229.708 56.4988 229.794 56.1041C229.89 55.7095 229.986 55.3308 230.082 54.9681C230.178 54.5948 230.263 54.2748 230.338 54.0081C230.423 53.7308 230.482 53.5388 230.514 53.4321C230.546 53.1655 230.551 53.0268 230.53 53.0161C230.508 52.9948 230.455 53.0535 230.37 53.1921C230.295 53.3095 230.156 53.5548 229.954 53.9281C229.751 54.3015 229.522 54.7388 229.266 55.2401C229.02 55.7415 228.78 56.2428 228.546 56.7441C228.108 57.5548 227.74 58.2321 227.442 58.7761C227.143 59.3201 226.898 59.7575 226.706 60.0881C226.514 60.4081 226.364 60.6481 226.258 60.8081C226.162 60.9788 226.087 61.0961 226.034 61.1601C225.991 61.2348 225.959 61.2828 225.938 61.3041C225.778 61.2935 225.639 61.2188 225.522 61.0801C225.404 60.9415 225.308 60.7761 225.234 60.5841C225.212 60.4775 225.196 60.3655 225.186 60.2481C225.175 60.1308 225.186 60.0028 225.218 59.8641C225.26 59.7148 225.324 59.5548 225.41 59.3841C225.548 59.1068 225.682 58.8721 225.81 58.6801C225.938 58.4881 226.018 58.3708 226.05 58.3281C226.103 58.2535 226.146 58.1735 226.178 58.0881C226.21 58.0028 226.231 57.9228 226.242 57.8481C226.295 57.7841 226.375 57.6508 226.482 57.4481C226.599 57.2455 226.716 57.0268 226.834 56.7921C226.919 56.6535 227.036 56.4615 227.186 56.2161C227.335 55.9601 227.495 55.6881 227.666 55.4001C227.836 55.1015 227.986 54.8295 228.114 54.5841C228.583 53.7415 228.956 53.0695 229.234 52.5681C229.511 52.0561 229.708 51.7308 229.826 51.5921C229.9 51.5388 229.964 51.4375 230.018 51.2881C230.082 51.1281 230.135 51.0108 230.178 50.9361C230.327 50.6375 230.476 50.3921 230.626 50.2001C230.786 49.9975 230.924 49.8961 231.042 49.8961C231.127 49.8961 231.234 49.9281 231.362 49.9921C231.5 50.0561 231.634 50.1468 231.762 50.2641C231.879 50.4028 231.986 50.5895 232.082 50.8241C232.188 51.0481 232.21 51.3468 232.146 51.7201C232.135 51.8908 232.108 52.0988 232.066 52.3441C232.023 52.5788 231.98 52.8135 231.938 53.0481C231.895 53.2828 231.852 53.4801 231.81 53.6401C231.724 54.1201 231.628 54.5788 231.522 55.0161C231.426 55.4428 231.335 55.8375 231.25 56.2001C231.164 56.5628 231.095 56.8828 231.042 57.1601C230.988 57.4268 230.951 57.6455 230.93 57.8161C230.919 57.9868 230.94 58.0988 230.994 58.1521C231.026 58.1628 231.068 58.1521 231.122 58.1201C231.186 58.0775 231.234 58.0348 231.266 57.9921C231.33 57.9068 231.388 57.8215 231.442 57.7361C231.495 57.6508 231.564 57.5441 231.65 57.4161C231.82 57.1815 231.996 56.9255 232.178 56.6481C232.37 56.3601 232.594 56.0081 232.85 55.5921C233.116 55.1655 233.431 54.6428 233.794 54.0241C234.156 53.3948 234.599 52.6161 235.122 51.6881C235.367 51.3148 235.602 50.9415 235.826 50.5681C236.05 50.1948 236.252 49.9068 236.434 49.7041C236.594 49.5335 236.791 49.4748 237.026 49.5281C237.271 49.5815 237.495 49.7148 237.698 49.9281C237.9 50.1415 238.012 50.4028 238.034 50.7121C238.044 50.8615 238.012 51.1281 237.938 51.5121C237.874 51.8855 237.783 52.3068 237.666 52.7761C237.548 53.2455 237.415 53.7041 237.266 54.1521C237.234 54.3335 237.18 54.5735 237.106 54.8721C237.031 55.1708 236.951 55.4748 236.866 55.7841C236.78 56.0935 236.7 56.3708 236.626 56.6161C236.551 56.9788 236.487 57.2668 236.434 57.4801C236.391 57.6935 236.37 57.9388 236.37 58.2161C236.274 58.3868 236.21 58.6321 236.178 58.9521C236.146 59.2721 236.13 59.6028 236.13 59.9441C236.087 60.3601 235.996 60.6535 235.858 60.8241C235.73 60.9948 235.644 61.0748 235.602 61.0641C235.516 61.0321 235.447 61.0588 235.394 61.1441ZM239.418 60.5201C239.279 60.5308 239.167 60.5148 239.082 60.4721C238.997 60.4401 238.89 60.3868 238.762 60.3121C238.527 60.1308 238.33 59.9068 238.17 59.6401C238.021 59.3735 237.951 59.1495 237.962 58.9681C237.983 58.8721 237.983 58.7868 237.962 58.7121C237.951 58.6375 237.946 58.6001 237.946 58.6001C237.882 58.5468 237.861 58.5148 237.882 58.5041C237.903 58.4828 237.919 58.4508 237.93 58.4081C238.015 58.3868 238.026 58.3281 237.962 58.2321C237.93 58.1468 237.946 57.9548 238.01 57.6561C238.085 57.3468 238.181 57.0588 238.298 56.7921C238.351 56.6748 238.426 56.5201 238.522 56.3281C238.629 56.1361 238.746 55.9441 238.874 55.7521C239.002 55.5495 239.119 55.3895 239.226 55.2721C239.461 55.0055 239.669 54.7868 239.85 54.6161C240.042 54.4455 240.255 54.3175 240.49 54.2321C240.703 54.1468 240.917 54.1095 241.13 54.1201C241.354 54.1308 241.551 54.2055 241.722 54.3441C241.978 54.4188 242.207 54.5361 242.41 54.6961C242.613 54.8455 242.751 55.0588 242.826 55.3361C242.911 55.6455 242.938 56.0135 242.906 56.4401C242.885 56.8561 242.703 57.3948 242.362 58.0561C242.159 58.4721 241.957 58.8081 241.754 59.0641C241.562 59.3201 241.327 59.5655 241.05 59.8001C240.847 59.9708 240.586 60.1201 240.266 60.2481C239.946 60.3761 239.663 60.4668 239.418 60.5201ZM240.81 58.1041C240.949 57.9121 241.055 57.7255 241.13 57.5441C241.215 57.3628 241.295 57.1121 241.37 56.7921C241.402 56.6748 241.418 56.5308 241.418 56.3601C241.429 56.1895 241.423 56.0348 241.402 55.8961C241.391 55.7468 241.354 55.6668 241.29 55.6561C241.151 55.6028 241.007 55.6028 240.858 55.6561C240.719 55.6988 240.554 55.8268 240.362 56.0401C240.191 56.2321 240.053 56.4135 239.946 56.5841C239.85 56.7441 239.759 56.9415 239.674 57.1761C239.599 57.4001 239.514 57.6935 239.418 58.0561C239.333 58.4081 239.327 58.6908 239.402 58.9041C239.487 59.1175 239.647 59.1761 239.882 59.0801C240.117 58.9841 240.426 58.6588 240.81 58.1041ZM244.911 59.5281C244.836 59.4641 244.735 59.2721 244.607 58.9521C244.49 58.6321 244.372 58.2588 244.255 57.8321C244.148 57.4055 244.063 57.0108 243.999 56.6481C243.956 56.4348 243.908 56.2535 243.855 56.1041C243.812 55.9548 243.775 55.8321 243.743 55.7361C243.69 55.5441 243.706 55.3415 243.791 55.1281C243.887 54.9148 243.999 54.7708 244.127 54.6961C244.18 54.6641 244.276 54.6428 244.415 54.6321C244.564 54.6108 244.66 54.6055 244.703 54.6161C244.831 54.6588 244.948 54.8561 245.055 55.2081C245.162 55.5495 245.258 56.0028 245.343 56.5681C245.386 56.8988 245.418 57.1441 245.439 57.3041C245.471 57.4535 245.487 57.5495 245.487 57.5921C245.53 57.6775 245.556 57.7841 245.567 57.9121C245.588 58.0295 245.642 58.0455 245.727 57.9601C245.77 57.9175 245.834 57.8428 245.919 57.7361C246.015 57.6295 246.127 57.4908 246.255 57.3201C246.479 57.0215 246.655 56.7761 246.783 56.5841C246.922 56.3815 247.076 56.1735 247.247 55.9601C247.322 55.8535 247.423 55.7361 247.551 55.6081C247.679 55.4801 247.807 55.3628 247.935 55.2561C248.063 55.1388 248.17 55.0695 248.255 55.0481C248.511 55.0055 248.666 55.1015 248.719 55.3361C248.783 55.5601 248.708 55.8215 248.495 56.1201C248.41 56.2481 248.34 56.3708 248.287 56.4881C248.244 56.5948 248.202 56.6695 248.159 56.7121C248.074 56.8828 247.94 57.1015 247.759 57.3681C247.578 57.6241 247.402 57.8641 247.231 58.0881C247.06 58.3015 246.943 58.4401 246.879 58.5041C246.836 58.5468 246.74 58.6268 246.591 58.7441C246.452 58.8615 246.319 59.0108 246.191 59.1921C245.935 59.4375 245.69 59.5868 245.455 59.6401C245.22 59.6935 245.039 59.6561 244.911 59.5281ZM252.032 60.0561C251.712 60.2375 251.37 60.3441 251.008 60.3761C250.656 60.3975 250.325 60.3495 250.016 60.2321C249.706 60.1041 249.456 59.9175 249.264 59.6721C249.157 59.5335 249.056 59.3148 248.96 59.0161C248.864 58.7068 248.848 58.2908 248.912 57.7681C248.976 57.2775 249.125 56.7815 249.36 56.2801C249.605 55.7788 249.904 55.3361 250.256 54.9521C250.608 54.5681 250.992 54.3068 251.408 54.1681C251.557 54.1148 251.706 54.0775 251.856 54.0561C252.016 54.0241 252.224 54.0188 252.48 54.0401C252.725 54.0721 252.944 54.1361 253.136 54.2321C253.328 54.3175 253.466 54.4135 253.552 54.5201C253.722 54.6908 253.834 54.8561 253.888 55.0161C253.941 55.1761 253.962 55.3308 253.952 55.4801C253.898 55.8215 253.744 56.1895 253.488 56.5841C253.242 56.9788 252.896 57.2721 252.448 57.4641C252.266 57.5388 252.053 57.5868 251.808 57.6081C251.562 57.6295 251.226 57.5975 250.8 57.5121C250.544 57.4588 250.373 57.4855 250.288 57.5921C250.213 57.6988 250.181 57.9068 250.192 58.2161C250.213 58.4081 250.256 58.5788 250.32 58.7281C250.394 58.8668 250.528 58.9628 250.72 59.0161C250.965 59.0588 251.141 59.0641 251.248 59.0321C251.354 58.9895 251.488 58.9308 251.648 58.8561C251.733 58.8028 251.813 58.7441 251.888 58.6801C251.973 58.6161 252.053 58.5521 252.128 58.4881C252.213 58.4241 252.282 58.3761 252.336 58.3441C252.389 58.3015 252.442 58.2748 252.496 58.2641C252.549 58.2535 252.602 58.2481 252.656 58.2481C252.773 58.2588 252.885 58.3228 252.992 58.4401C253.098 58.5575 253.168 58.6695 253.2 58.7761C253.2 58.8615 253.146 58.9841 253.04 59.1441C252.933 59.2935 252.789 59.4535 252.608 59.6241C252.437 59.7841 252.245 59.9281 252.032 60.0561ZM251.824 56.4881C251.898 56.4561 252.005 56.3815 252.144 56.2641C252.293 56.1468 252.426 56.0241 252.544 55.8961C252.661 55.7575 252.72 55.6508 252.72 55.5761C252.72 55.4588 252.64 55.3575 252.48 55.2721C252.33 55.1868 252.133 55.1708 251.888 55.2241C251.802 55.2455 251.701 55.3041 251.584 55.4001C251.466 55.4961 251.349 55.6081 251.232 55.7361C251.114 55.8535 251.013 55.9708 250.928 56.0881C250.842 56.1948 250.784 56.2801 250.752 56.3441C250.794 56.3975 250.88 56.4401 251.008 56.4721C251.136 56.5041 251.274 56.5201 251.424 56.5201C251.584 56.5201 251.717 56.5095 251.824 56.4881Z" fill="#F6851F"/>
</svg>
