<svg width="603" height="180" viewBox="0 0 603 180" fill="none" xmlns="http://www.w3.org/2000/svg">
<path d="M29.5132 160.466C27.75 160.138 26.3256 159.829 25.2402 159.539C24.1631 159.344 23.6245 159.247 23.6245 159.247C23.774 158.752 23.6407 158.33 23.2247 157.981C22.9043 157.623 22.214 157.443 21.1536 157.439C19.6354 156.608 18.0359 155.399 16.3552 153.811C14.6744 152.224 13.1807 150.572 11.8742 148.855C10.5676 147.138 9.68536 145.867 9.22751 145.039C8.43257 143.663 8.40508 142.798 9.14506 142.445C9.87667 141.995 10.7475 141.485 11.7577 140.915C12.7427 140.058 13.7923 139.388 14.9065 138.905C16.1163 138.414 17.1748 138.947 18.0821 140.506C19.5178 142.597 21.5937 144.295 24.3097 145.599C27.1213 146.895 30.2133 147.54 33.5856 147.534C37.0536 147.52 40.4462 146.644 43.7636 144.909C45.9668 143.656 47.0845 142.113 47.1168 140.279C47.1407 138.349 46.231 136.213 44.3877 133.868C44.0339 133.128 43.5491 132.544 42.9335 132.116C42.4135 131.68 41.594 131.125 40.4751 130.452C39.4518 129.771 37.9563 128.649 35.9887 127.087C34.4956 126.543 33.1023 126.038 31.8089 125.573C30.611 125.1 29.3134 124.587 27.9159 124.035C26.3189 123.403 24.5054 122.502 22.4756 121.33C20.4374 120.063 18.5343 118.688 16.7662 117.204C14.9898 115.625 13.6043 114.108 12.6098 112.653C10.9541 111.353 9.82623 109.476 9.22615 107.023C8.6177 104.474 8.42706 101.744 8.65423 98.8334C8.97703 95.9142 9.65965 93.2525 10.7021 90.8485C11.1588 89.4595 12.0601 87.646 13.4062 85.4082C14.7439 83.0747 16.2687 80.6767 17.9806 78.2141C19.6925 75.7515 21.3297 73.5364 22.8921 71.5687C24.5419 69.4971 25.8634 68.0805 26.8568 67.319C27.555 66.487 28.3009 65.6508 29.0947 64.8104C29.8801 63.8744 30.2728 63.4064 30.2728 63.4064C30.3266 62.9199 30.4492 62.6682 30.6404 62.6515C30.9273 62.6264 31.0708 62.6139 31.0708 62.6139C31.5239 62.2851 32.534 61.7149 34.1012 60.9032C35.6684 60.0915 37.3289 58.6935 39.0826 56.7091C45.2224 53.0882 50.4937 50.5551 54.8965 49.1099C59.2909 47.5691 62.7792 46.6857 65.3613 46.4598C67.7606 46.3462 70.1622 46.8107 72.5662 47.8531C74.9618 48.7999 77.052 50.1107 78.8368 51.7856C80.7172 53.452 81.9013 55.4203 82.389 57.6904C83.2592 59.9271 83.1671 62.7298 82.1127 66.0985C81.1456 69.3632 79.6399 72.5305 77.5957 75.6004C75.6387 78.5662 73.5234 80.8232 71.2497 82.3712C68.6723 83.7531 66.3896 84.0974 64.4016 83.404C62.5092 82.7023 61.5314 81.4387 61.468 79.6132C61.4011 78.8482 61.5607 77.9187 61.9469 76.8249C62.4286 75.7227 63.7478 73.7282 65.9044 70.8412C68.5715 66.0786 69.917 62.7326 69.9409 60.8032C69.9648 58.8738 69.0079 57.8493 67.0701 57.7297C66.4795 57.5887 65.3839 57.7327 63.7832 58.1618C62.1826 58.591 60.4468 59.1283 58.5759 59.7738C56.7923 60.3153 55.2042 60.8879 53.8115 61.4916C52.5145 62.0869 51.8743 62.4802 51.891 62.6715C51.891 62.6715 51.9036 62.8149 51.9287 63.1018C51.9538 63.3887 51.7709 63.5011 51.38 63.4389C51.1887 63.4557 50.5486 63.8489 49.4595 64.6188C48.4577 65.2846 47.2336 66.1627 45.7871 67.2529C44.3406 68.3431 42.8983 69.4811 41.4602 70.667C40.1093 71.7488 38.9414 72.7183 37.9564 73.5754C36.9713 74.4326 36.4393 74.9609 36.3604 75.1606C36.2612 76.2293 35.2451 77.2819 33.312 78.3183C31.4998 79.6332 29.9684 81.4054 28.7179 83.6349C27.4675 85.8644 26.0282 88.6886 24.3999 92.1075C22.9666 94.4493 22.0281 96.9406 21.5846 99.5813C21.1327 102.126 21.3084 104.135 22.1117 105.606C22.7238 107.095 24.1487 108.512 26.3865 109.858C28.7117 111.1 31.8353 112.658 35.7575 114.531C39.168 116.064 42.3957 117.708 45.4404 119.466C48.4852 121.223 51.0954 122.97 53.2711 124.707C55.4384 126.349 56.8633 127.766 57.5459 128.959C58.8357 130.484 59.6683 132.291 60.0437 134.378C60.5147 136.457 60.6945 138.513 60.5833 140.546C60.5594 142.476 60.4106 144.079 60.1368 145.355C59.6012 146.944 58.6915 148.662 57.4076 150.509C56.2193 152.347 55.0472 153.269 53.8912 153.274C52.8643 153.653 52.0807 154.059 51.5403 154.491C51.0956 154.916 50.5511 155.301 49.9068 155.646C49.2708 156.087 47.7305 156.656 45.2858 157.351C42.8495 158.143 40.1616 158.812 37.222 159.358C34.2908 160 31.7212 160.369 29.5132 160.466ZM78.9288 144.29C78.0968 143.591 77.4226 142.494 76.9061 140.997C76.4854 139.492 76.26 138.018 76.2302 136.575C76.1919 135.037 76.3306 133.868 76.6462 133.07C76.5793 132.305 76.6247 131.723 76.7825 131.323C77.0276 130.82 77.0856 130.381 76.9565 130.007C76.8274 129.633 76.8644 128.955 77.0677 127.974C77.2709 126.992 77.4783 126.059 77.6899 125.173C78.2255 123.584 78.8191 121.557 79.4706 119.09C80.1138 116.529 80.7569 113.967 81.4001 111.405C82.0349 108.748 82.5597 106.485 82.9746 104.618C83.381 102.655 83.6154 101.478 83.6775 101.087C83.5771 99.9397 84.2878 99.2511 85.8096 99.0216C86.9237 98.5387 88.3523 98.8955 90.0952 100.092C91.8381 101.289 93.2547 102.61 94.3449 104.057C95.1769 104.755 95.5517 105.734 95.4692 106.994C95.3867 108.254 94.9199 110.078 94.0687 112.465C93.7531 113.263 93.3879 114.596 92.973 116.464C92.6455 118.227 92.4362 119.691 92.3454 120.855C92.0298 121.654 91.6478 122.795 91.1995 124.28C90.8385 125.661 90.5211 126.989 90.2473 128.266C90.0979 128.761 89.9861 129.686 89.912 131.042C89.8295 132.302 89.7033 133.614 89.5336 134.978C89.3638 136.342 89.0733 137.427 88.6621 138.234C88.1444 142.231 86.815 144.66 84.674 145.522C82.6286 146.375 80.7135 145.964 78.9288 144.29ZM89.3889 85.4098C88.27 84.7368 87.3776 83.8994 86.7117 82.8976C86.1332 81.7918 85.7584 80.8128 85.5875 79.9604C85.5122 79.0997 85.5618 78.5654 85.7363 78.3573C86.6006 77.2217 87.2922 75.7639 87.811 73.9839C88.4255 72.1955 89.1003 70.5464 89.8356 69.0366C90.0017 68.733 90.2073 68.3295 90.4524 67.8262C90.7847 67.219 91.138 66.8508 91.5122 66.7217C92.5929 65.8562 94.175 65.766 96.2586 66.451C98.4379 67.1276 100.073 68.1892 101.163 69.6356C102.183 71.3774 102.585 73.2214 102.37 75.1675C102.25 77.1053 101.422 79.2015 99.8842 81.4561C98.617 83.4943 96.9088 84.8965 94.7594 85.6627C92.6016 86.3333 90.8114 86.249 89.3889 85.4098ZM173.417 135.011C172.731 134.878 171.625 134.349 170.098 133.422C168.572 132.496 167.143 131.031 165.811 129.027C164.575 127.015 163.858 124.332 163.661 120.976C163.506 118.099 163.521 116.073 163.708 114.901C163.981 113.624 163.779 112.967 163.102 112.93C162.615 112.876 161.696 113.39 160.345 114.472C158.995 115.554 157.264 117.247 155.152 119.552C153.041 121.857 150.511 124.873 147.56 128.6C146.496 129.657 145.31 130.965 144.001 132.525C142.779 133.981 141.48 135.107 140.104 135.902C138.824 136.688 137.616 136.65 136.48 135.785L134.933 134.62C134.213 134.104 133.572 133.39 133.01 132.475C132.449 131.561 132.234 130.76 132.367 130.074L135.405 118.533C136.335 115.946 136.941 114.062 137.223 112.881C137.601 111.692 137.729 110.958 137.608 110.679C137.583 110.392 137.336 110.318 136.866 110.455C136.301 110.601 135.534 111.198 134.565 112.247C133.589 113.199 132.934 113.979 132.602 114.587C132.219 114.62 131.727 115.049 131.124 115.872C130.617 116.688 130.102 117.407 129.579 118.031C129.055 118.655 128.147 119.843 126.855 121.594C125.554 123.25 124.166 125.009 122.691 126.873C121.548 128.13 120.247 129.785 118.789 131.84C117.331 133.895 116.047 135.742 114.937 137.381C113.828 139.02 113.13 139.852 112.843 139.877C111.113 139.932 109.485 139.496 107.958 138.57C106.527 137.635 105.506 136.423 104.894 134.935C104.228 133.933 104.013 132.025 104.248 129.209C104.476 126.299 104.987 121.676 105.782 115.343C106.039 113.875 106.265 112.602 106.46 111.525C106.75 110.44 107.041 109.355 107.331 108.269C107.622 107.184 107.947 105.951 108.308 104.57C108.765 103.181 109.34 101.492 110.033 99.5042C110.394 98.1235 110.477 96.8635 110.281 95.7242C110.077 94.4893 109.893 93.4935 109.73 92.7368C109.605 91.3023 109.935 90.117 110.72 89.181C111.601 88.2366 112.603 87.5708 113.726 87.1835C114.84 86.7006 115.74 86.5254 116.426 86.6581C119.129 86.7108 121.03 87.5081 122.128 89.0503C123.227 90.5924 123.891 92.1243 124.121 93.6461C124.342 95.0723 124.263 96.3801 123.886 97.5695C123.508 98.759 123.209 99.7488 122.989 100.539L121.75 104.55C120.986 106.833 120.411 108.522 120.025 109.616C119.726 110.606 119.545 111.296 119.483 111.687C119.508 111.974 119.533 112.261 119.559 112.548C119.679 112.826 120.097 112.645 120.812 112.004C121.527 111.364 122.368 110.519 123.337 109.471C124.392 108.318 125.365 107.318 126.254 106.469C127.85 104.884 129.542 103.29 131.329 101.688C133.203 99.9826 135.047 98.4722 136.859 97.1572C138.671 95.8423 140.182 94.9392 141.392 94.4479C143.043 94.5925 144.596 95.2757 146.052 96.4975C147.604 97.7109 148.613 98.779 149.079 99.7019C149.683 101.095 149.844 102.381 149.562 103.563C149.375 104.735 149.228 105.808 149.12 106.781C149.058 107.172 148.93 107.906 148.735 108.983C148.54 110.06 148.341 111.09 148.138 112.071C147.926 112.957 147.82 113.4 147.82 113.4C147.82 113.4 148.082 113.088 148.606 112.464C149.129 111.84 149.836 111.103 150.725 110.255C151.606 109.31 152.496 108.461 153.394 107.708C157.857 103.656 161.434 101.03 164.124 99.8311C166.901 98.5282 169.411 99.1277 171.653 101.63C172.893 102.581 173.736 103.953 174.181 105.745C174.723 107.529 175.128 109.951 175.395 113.011C175.6 114.246 175.817 115.624 176.046 117.146C176.371 118.659 176.68 119.981 176.971 121.112C177.359 122.235 177.661 122.931 177.877 123.201C178.197 123.559 178.757 123.895 179.555 124.211C180.346 124.431 181.084 124.607 181.77 124.74C183.167 125.292 183.993 126.473 184.248 128.281C184.59 129.986 184.038 131.384 182.591 132.474C181.232 133.46 179.748 134.12 178.139 134.453C176.625 134.779 175.051 134.964 173.417 135.011ZM189.573 163.809C188.268 164.308 186.852 164.095 185.325 163.168C183.894 162.234 182.717 160.891 181.793 159.141C180.964 157.382 180.801 155.518 181.303 153.546C181.444 152.956 181.647 151.974 181.913 150.602C182.187 149.325 182.329 148.204 182.341 147.24C182.378 146.562 182.565 145.389 182.901 143.722C183.245 142.15 183.637 140.573 184.077 138.993C184.613 137.404 185.043 136.259 185.367 135.556C185.857 134.549 186.143 133.416 186.226 132.156C186.404 130.887 186.463 129.919 186.405 129.249C186.538 128.563 186.71 127.777 186.921 126.891C187.229 125.997 187.553 125.294 187.893 124.782C188.018 124.001 188.233 123.163 188.541 122.268C188.839 121.279 189.199 120.428 189.618 119.717C189.751 119.031 189.823 118.205 189.835 117.24C189.943 116.267 190.184 115.716 190.558 115.587C190.62 115.196 190.634 114.81 190.601 114.427C190.663 114.036 190.808 113.493 191.037 112.799C191.136 111.73 191.433 110.162 191.926 108.095C192.42 106.029 193.04 103.758 193.788 101.283C194.597 98.4179 195.105 95.9642 195.312 93.9224C195.51 91.785 194.867 90.4921 193.382 90.0438C192.584 89.7282 192.03 88.9094 191.722 87.5872C191.405 86.1694 191.375 84.7265 191.632 83.2585C191.889 81.7906 192.388 80.8796 193.128 80.5258C193.955 80.068 194.986 79.7368 196.221 79.5324C197.456 79.328 198.556 79.2318 199.521 79.2438C200.573 79.1517 201.059 79.2055 200.98 79.4052C201.022 79.8833 201.286 80.1493 201.773 80.2031C201.939 79.8995 202.359 80.2964 203.033 81.3938C203.795 82.3872 204.521 83.5283 205.212 84.8169C205.903 86.1056 206.269 86.9891 206.311 87.4672C206.153 87.8665 206.079 88.114 206.087 88.2096C206.087 88.2096 206.278 88.1929 206.661 88.1594C206.661 88.1594 207.166 87.8743 208.176 87.3041C209.178 86.6382 210.223 85.9204 211.312 85.1505C212.489 84.2767 213.251 83.6318 213.6 83.2158C213.6 83.2158 213.831 83.0992 214.292 82.8661C214.841 82.529 215.29 82.1524 215.639 81.7364C217.485 80.804 219.528 80.4807 221.77 80.7664C224.107 81.0438 225.999 81.7455 227.447 82.8716C229.569 85.0951 231.263 87.9343 232.529 91.3891C233.89 94.8356 234.048 98.291 233.002 101.755C232.853 102.25 232.493 103.101 231.924 104.307C231.442 105.409 230.957 106.464 230.466 107.47C229.968 108.381 229.719 108.836 229.719 108.836C227.82 112.472 225.633 115.554 223.156 118.084C220.774 120.605 218.129 122.86 215.219 124.849C214.321 125.602 213.037 126.341 211.366 127.065C209.79 127.781 208.297 128.346 206.888 128.758C205.574 129.162 204.766 129.281 204.462 129.115C203.343 128.442 202.244 126.9 201.166 124.489C200.797 125.774 200.427 127.059 200.058 128.344C199.776 129.525 199.604 130.311 199.541 130.702C199.504 131.38 199.459 131.962 199.405 132.448C199.343 132.839 199.133 133.195 198.776 133.515C198.776 133.515 198.745 133.711 198.683 134.102C198.62 134.492 198.336 135.096 197.829 135.911C197.115 138.768 196.538 140.987 196.099 142.567C195.667 144.243 195.302 145.576 195.003 146.566C194.808 147.643 194.617 148.768 194.431 149.94C194.465 152.539 194.082 155.319 193.281 158.28C192.576 161.233 191.34 163.076 189.573 163.809ZM206.868 115.317C207.234 115.092 207.874 114.699 208.789 114.137C209.799 113.567 210.897 112.892 212.081 112.114C213.258 111.24 214.342 110.423 215.336 109.661C216.416 108.796 217.171 108.055 217.599 107.439C218.289 106.512 218.66 105.805 218.714 105.318C218.76 104.736 218.919 103.807 219.193 102.53C219.413 101.74 219.672 100.85 219.971 99.8598C220.27 98.87 220.525 97.9322 220.737 97.0464C221.052 96.2478 221.129 95.4702 220.966 94.7135C220.891 93.8528 220.541 93.1606 219.917 92.637C219.527 92.5749 218.631 92.7978 217.23 93.3058C215.924 93.8055 214.413 94.7086 212.696 96.0152C211.075 97.3135 209.5 99.1377 207.971 101.488C206.189 104.246 205.055 106.706 204.57 108.868C204.076 110.935 204.075 112.574 204.566 113.783C205.049 114.898 205.816 115.409 206.868 115.317ZM244.138 136.629C242.853 136.26 241.782 135.583 240.924 134.598C240.076 133.708 239.52 132.312 239.257 130.407C239.052 129.172 238.941 127.351 238.923 124.943C238.897 122.44 239.014 119.924 239.275 117.396C239.258 117.205 239.241 117.014 239.225 116.822C239.295 116.527 239.326 116.332 239.318 116.236C239.38 115.845 239.426 115.263 239.454 114.489C239.475 113.62 239.512 112.943 239.565 112.456C239.707 111.865 239.798 111.809 239.84 112.287L240.362 108.339C240.594 106.584 240.869 104.777 241.188 102.918C241.508 101.059 241.8 99.4438 242.065 98.0714C242.418 96.595 242.634 95.757 242.713 95.5574C242.713 95.5574 242.81 95.0189 243.005 93.9418C243.287 92.7607 243.569 91.5796 243.851 90.3985C244.963 85.4829 246.05 81.3886 247.113 78.1155C248.272 74.8341 249.314 72.4301 250.241 70.9035C250.311 70.6082 250.425 70.2609 250.583 69.8617C250.732 69.3668 250.842 68.9717 250.913 68.6764C250.821 67.6244 250.802 66.8552 250.856 66.3686C251.005 65.8737 251.206 65.4224 251.46 65.0148C251.618 64.6155 251.863 64.1123 252.195 63.505C252.519 62.8021 252.878 61.9515 253.273 60.9533L253.709 59.3252C254.174 58.0317 254.765 56.5344 255.484 54.8334C256.194 53.0366 256.703 51.6912 257.01 50.797C257.221 49.9112 257.707 48.8568 258.468 47.6339C259.22 46.3153 260.105 45.4188 261.123 44.9442L260.967 44.8133C261.37 43.9108 262.22 43.1618 263.517 42.5665C264.806 41.8756 265.881 41.4924 266.741 41.4171C268.08 41.3 269.118 41.5947 269.854 42.3012C270.686 42.9993 271.161 44.0179 271.278 45.3567C271.404 46.7913 271.448 47.8474 271.411 48.5252C271.461 49.099 271.185 49.7978 270.582 50.6214L270.726 50.6089C270.9 50.4009 270.878 50.692 270.658 51.4821C270.438 52.2723 270.244 52.8192 270.078 53.1229C269.929 53.6178 269.736 54.1647 269.499 54.7636C269.358 55.3541 269.157 55.8054 268.895 56.1174C268.641 56.525 267.993 57.9309 266.951 60.3349C265.9 62.6432 264.744 65.3945 263.481 68.5887C262.21 71.6872 260.983 74.7338 259.8 77.7283C258.703 80.6189 257.935 82.8543 257.495 84.4347L256.966 86.6492C256.904 87.0401 256.882 87.3312 256.898 87.5225C256.67 88.217 256.442 88.9116 256.213 89.6061C255.985 90.3006 255.748 90.8996 255.503 91.4028L253.986 100.498L253.676 103.56L252.673 106.973L252.051 109.774C251.91 110.364 251.821 110.998 251.784 111.676C251.747 112.354 251.597 112.849 251.336 113.161C251.344 113.256 251.309 113.404 251.23 113.604C251.238 113.699 251.247 113.795 251.255 113.891C251.006 115.454 250.525 117.665 249.811 120.522C249.193 123.37 248.935 126.477 249.037 129.841C249.045 129.936 249.006 130.036 248.918 130.14C248.927 130.236 248.935 130.331 248.943 130.427C248.832 132.46 248.344 134.045 247.48 135.181C246.72 136.404 245.606 136.887 244.138 136.629ZM282.968 131.498C277.708 131.958 273.51 130.783 270.373 127.974C267.332 125.156 265.535 120.592 264.983 114.28C264.682 110.837 264.973 107.005 265.856 102.784C266.835 98.5544 268.205 94.3871 269.966 90.282C271.823 86.1686 273.917 82.5644 276.248 79.4694C278.571 76.2788 280.973 73.9968 283.455 72.6232C284.369 72.0614 285.344 71.6388 286.379 71.3555C287.502 70.9682 288.589 70.7285 289.641 70.6365C290.789 70.5361 292.04 70.523 293.396 70.5971C294.839 70.5672 296.203 70.737 297.488 71.1064C299.746 71.5834 301.772 72.7071 303.565 74.4776C305.453 76.2397 306.557 78.9378 306.875 82.5719C306.958 83.5282 306.955 84.5886 306.864 85.7529C306.765 86.8217 306.522 87.9029 306.136 88.9967C305.169 92.2615 303.52 95.4413 301.188 98.5362C298.953 101.623 296.499 103.861 293.826 105.251C293.094 105.701 292.354 106.055 291.606 106.313C290.945 106.467 290.232 106.578 289.467 106.645C287.458 106.82 285.616 106.692 283.94 106.261C282.36 105.821 280.858 105.181 279.436 104.342L278.2 103.438L277.609 104.936C277.098 106.811 276.754 108.383 276.576 109.652C276.493 110.912 276.477 111.829 276.527 112.402C276.628 113.55 276.78 114.741 276.984 115.976C277.18 117.115 277.551 118.047 278.096 118.77C278.52 119.215 279.032 119.555 279.631 119.792C280.326 120.02 281.151 120.093 282.107 120.009C282.681 119.959 283.207 119.913 283.685 119.871C284.251 119.725 284.721 119.588 285.095 119.459C286.783 118.925 288.115 118.182 289.092 117.23C290.156 116.173 291.28 115.255 292.465 114.477L293.013 114.14L292.832 113.722C294.383 112.719 295.437 112.097 295.994 111.856C296.542 111.519 296.952 111.242 297.222 111.025C297.571 110.609 297.985 110.381 298.463 110.339C299.785 110.03 301.109 110.3 302.436 111.147C303.851 111.891 304.616 112.932 304.733 114.271C304.784 114.845 304.433 115.791 303.681 117.11C303.024 118.42 302.129 119.751 300.995 121.103C299.947 122.351 298.831 123.364 297.647 124.142C297.368 124.263 297.094 124.432 296.824 124.648C296.545 124.769 296.271 124.937 296.001 125.154L296.144 125.141C295.384 126.364 294.573 127.013 293.713 127.088L292.565 127.189C292.241 127.892 291.06 128.718 289.023 129.667C286.995 130.712 284.976 131.322 282.968 131.498ZM287.403 96.2731C288.264 96.1978 289.016 95.9874 289.66 95.642C290.4 95.2881 291.088 94.8907 291.724 94.4495C293.877 92.6229 295.176 90.3893 295.619 87.7486C296.063 85.1079 295.652 83.1683 294.387 81.9298C294.171 81.6596 293.915 81.4893 293.62 81.4188C293.316 81.2526 292.973 81.1862 292.591 81.2197C291.539 81.3117 290.372 81.751 289.092 82.5376C287.907 83.3158 286.748 84.381 285.613 85.733C284.479 87.085 283.461 88.6677 282.56 90.4812L280.958 93.6569C281.141 93.5445 281.28 93.4841 281.376 93.4757C281.559 93.3634 281.698 93.303 281.794 93.2946C282.655 93.2193 283.253 93.456 283.591 94.0048C283.928 94.5535 284.313 95.098 284.745 95.6383C285.274 96.1703 286.16 96.3819 287.403 96.2731ZM433.994 122.621C433.645 123.037 432.745 123.212 431.293 123.147C429.85 123.176 428.644 122.607 427.675 121.439C426.888 120.159 426.372 118.662 426.125 116.949C425.879 115.236 425.67 112.845 425.498 109.777C425.779 106.379 426.35 101.896 427.212 96.3281C428.074 90.7598 429.025 84.5573 430.065 77.7207C431.193 70.78 432.308 63.6959 433.41 56.4683C433.978 53.0458 434.4 50.166 434.678 47.8289C435.051 45.4835 435.283 43.7286 435.374 42.5642C435.552 41.2959 435.641 40.6617 435.641 40.6617C435.562 40.8614 435.435 41.0652 435.261 41.2732C435.182 41.4728 435.103 41.6724 435.024 41.8721C434.945 42.0717 434.866 42.2714 434.787 42.471C434.787 42.471 434.625 42.8224 434.301 43.5254C434.073 44.2199 433.504 45.4261 432.594 47.1439C431.929 48.3585 431.329 49.7601 430.794 51.3488C430.258 52.9376 429.286 55.0463 427.878 57.675C426.599 60.6779 425.166 64.1279 423.58 68.025C421.993 71.9221 420.627 75.029 419.481 77.3458C418.903 78.4563 418.361 79.4192 417.854 80.2345C417.443 81.0414 417.163 81.6923 417.013 82.1872C416.723 83.2727 416.214 84.6181 415.487 86.2236C414.76 87.8291 413.886 89.3993 412.864 90.9342C412.365 91.8451 411.688 92.9162 410.832 94.1475C410.072 95.3704 409.399 96.4893 408.813 97.5042C408.219 98.4235 407.922 98.8832 407.922 98.8832C407.781 99.4737 407.238 100.437 406.295 101.772C405.352 103.107 404.182 104.607 402.786 106.271C401.477 107.831 400.112 109.299 398.69 110.677C395.577 113.647 392.95 115.563 390.809 116.425C388.764 117.279 386.254 116.679 383.28 114.627C381.903 113.205 380.765 111.763 379.866 110.3C378.959 108.741 378.384 106.575 378.141 103.801C377.898 101.028 378.038 97.113 378.559 92.0563C378.952 88.8418 379.377 85.4318 379.832 81.8264C380.383 78.2126 380.947 74.7423 381.523 71.4154C382.091 67.9929 382.605 65.0569 383.065 62.6075C383.613 60.054 383.988 58.2866 384.192 57.3051C384.269 54.8892 384.208 53.6417 384.009 53.5628C383.801 53.3883 383.369 53.9561 382.712 55.2663C382.135 56.3769 381.084 58.6852 379.56 62.1914C378.036 65.6976 376.322 69.7985 374.421 74.4942C372.614 79.1814 370.856 83.8645 369.145 88.5434C365.86 96.1547 363.092 102.516 360.841 107.628C358.59 112.739 356.733 116.853 355.271 119.968C353.801 122.988 352.65 125.257 351.819 126.775C351.092 128.38 350.515 129.491 350.087 130.107C349.763 130.81 349.514 131.265 349.339 131.473C347.896 131.503 346.594 130.942 345.434 129.791C344.273 128.64 343.282 127.233 342.462 125.57C342.187 124.63 341.956 123.639 341.769 122.595C341.581 121.551 341.576 120.395 341.754 119.127C342.02 117.755 342.468 116.27 343.099 114.673C344.125 112.078 345.136 109.869 346.133 108.047C347.13 106.225 347.755 105.111 348.009 104.703C348.428 103.992 348.748 103.241 348.968 102.451C349.188 101.661 349.317 100.927 349.354 100.249C349.782 99.6332 350.394 98.375 351.192 96.4743C352.085 94.5652 352.965 92.5127 353.833 90.3167C354.489 89.0065 355.391 87.193 356.537 84.8763C357.675 82.4639 358.897 79.8997 360.201 77.1837C361.497 74.3721 362.622 71.8163 363.577 69.5163C367.124 61.593 369.944 55.2751 372.038 50.5628C374.123 45.7548 375.637 42.6831 376.58 41.3478C377.207 40.8111 377.702 39.8524 378.063 38.4716C378.511 36.9869 378.897 35.8931 379.221 35.1902C380.326 32.3953 381.472 30.0785 382.661 28.24C383.936 26.2974 385.1 25.2801 386.152 25.1881C386.917 25.1211 387.898 25.3244 389.096 25.7978C390.39 26.2628 391.656 26.9711 392.896 27.9227C394.057 29.0739 395.159 30.6639 396.204 32.6925C397.336 34.6172 397.762 37.2782 397.481 40.6756C397.519 42.2142 397.443 44.0999 397.253 46.333C397.055 48.4704 396.856 50.6079 396.658 52.7453C396.459 54.8827 396.231 56.6854 395.974 58.1534C395.586 62.5239 395.085 66.7115 394.472 70.7162C393.946 74.6169 393.442 78.2265 392.962 81.545C392.481 84.8635 392.11 87.787 391.85 90.3153C391.581 92.748 391.418 94.7378 391.36 96.2847C391.398 97.8232 391.677 98.8106 392.198 99.247C392.493 99.3175 392.867 99.1884 393.32 98.8597C393.86 98.4269 394.257 98.0067 394.511 97.5991C395.018 96.7838 395.477 95.9727 395.888 95.1658C396.299 94.3589 396.837 93.3482 397.502 92.1336C398.848 89.8958 400.225 87.4625 401.633 84.8338C403.129 82.101 404.861 78.7694 406.83 74.8388C408.886 70.8042 411.297 65.8713 414.064 60.04C416.822 54.1131 420.18 46.7845 424.138 38.0543C426.045 34.5147 427.856 30.9834 429.571 27.4605C431.287 23.9376 432.878 21.1965 434.345 19.2372C435.645 17.5815 437.368 16.9007 439.514 17.1948C441.756 17.4806 443.869 18.5003 445.853 20.254C447.837 22.0077 449.047 24.2629 449.48 27.0196C449.693 28.3501 449.615 30.7661 449.247 34.2675C448.966 37.6649 448.484 41.5136 447.8 45.8136C447.116 50.1135 446.281 54.3304 445.293 58.4642C445.148 60.1151 444.859 62.3087 444.423 65.0451C443.988 67.7814 443.509 70.5697 442.987 73.4101C442.465 76.2504 441.965 78.7997 441.488 81.0578C441.103 84.368 440.755 87.0003 440.444 88.9549C440.229 90.901 440.23 93.1173 440.448 95.6038C439.721 97.2093 439.339 99.4591 439.303 102.353C439.268 105.247 439.384 108.225 439.651 111.285C439.595 115.048 439.012 117.749 437.903 119.388C436.889 121.019 436.187 121.803 435.796 121.741C435.006 121.521 434.405 121.814 433.994 122.621ZM469.585 113.87C468.35 114.074 467.333 114.019 466.535 113.703C465.744 113.483 464.746 113.089 463.54 112.52C461.294 111.078 459.349 109.224 457.705 106.959C456.157 104.685 455.36 102.731 455.313 101.097C455.429 100.22 455.362 99.4546 455.112 98.8019C454.958 98.1408 454.881 97.8103 454.881 97.8103C454.265 97.3823 454.049 97.1121 454.232 96.9998C454.406 96.7918 454.525 96.4923 454.587 96.1014C455.335 95.8432 455.385 95.3088 454.736 94.4983C454.382 93.7584 454.375 92.0244 454.714 89.2964C455.141 86.4644 455.776 83.807 456.619 81.3241C457.005 80.2303 457.553 78.785 458.263 76.9883C459.069 75.1832 459.97 73.3697 460.967 71.5479C461.956 69.6304 462.882 68.1039 463.747 66.9682C465.642 64.3933 467.335 62.2696 468.827 60.5972C470.414 58.9165 472.227 57.6015 474.264 56.6524C476.109 55.7199 477.993 55.2179 479.914 55.1462C481.931 55.0661 483.758 55.5808 485.397 56.6901C487.751 57.1588 489.899 58.0309 491.842 59.3064C493.776 60.4863 495.187 62.2903 496.074 64.7182C497.081 67.4247 497.609 70.7031 497.657 74.5536C497.792 78.3001 496.589 83.2719 494.047 89.469C492.556 93.3577 491.003 96.5292 489.387 98.9834C487.866 101.429 485.954 103.813 483.652 106.134C481.969 107.824 479.743 109.367 476.974 110.766C474.206 112.165 471.742 113.199 469.585 113.87ZM480.17 91.1167C481.263 89.2865 482.072 87.5293 482.6 85.8449C483.223 84.1522 483.743 81.842 484.162 78.9144C484.356 77.8373 484.387 76.5337 484.253 75.0036C484.215 73.465 484.046 72.0825 483.746 70.856C483.533 69.5255 483.135 68.8375 482.553 68.7921C481.268 68.4227 479.977 68.5356 478.68 69.1309C477.47 69.6222 476.088 70.8995 474.534 72.9628C473.155 74.8181 472.054 76.5527 471.231 78.1665C470.496 79.6763 469.838 81.5167 469.257 83.6876C468.763 85.7545 468.228 88.4514 467.652 91.7783C467.163 95.0012 467.337 97.5397 468.174 99.3938C469.106 101.24 470.587 101.64 472.615 100.595C474.644 99.5505 477.162 96.391 480.17 91.1167ZM518.054 100.667C517.335 100.152 516.276 98.5101 514.877 95.7414C513.574 92.9644 512.229 89.7092 510.842 85.9759C509.551 82.2342 508.477 78.7626 507.618 75.5612C507.069 73.682 506.496 72.0939 505.901 70.7968C505.401 69.4914 504.97 68.4209 504.608 67.5853C503.979 65.9057 503.964 64.0761 504.561 62.0965C505.255 60.1085 506.146 58.7295 507.235 57.9597C507.688 57.631 508.532 57.3644 509.767 57.16C511.089 56.8516 511.946 56.7285 512.336 56.7906C513.518 57.0728 514.724 58.75 515.957 61.8222C517.181 64.7989 518.397 68.7881 519.606 73.7898C520.248 76.721 520.727 78.8955 521.044 80.3132C521.448 81.627 521.667 82.4752 521.7 82.8577C522.149 83.5893 522.472 84.5248 522.668 85.664C522.952 86.6993 523.442 86.8009 524.14 85.9689C524.49 85.5529 525.005 84.8332 525.686 83.8099C526.463 82.7783 527.359 81.4472 528.372 79.8166C530.146 76.9631 531.532 74.6255 532.529 72.8037C533.613 70.8778 534.837 68.8916 536.2 66.8451C536.785 65.8302 537.602 64.6987 538.649 63.4507C539.696 62.2027 540.752 61.0503 541.816 59.9935C542.871 58.8411 543.773 58.1358 544.522 57.8776C546.783 57.2943 548.245 58.0337 548.908 60.0958C549.657 62.0539 549.193 64.4556 547.514 67.3007C546.85 68.5152 546.324 69.6694 545.938 70.7632C545.639 71.753 545.315 72.4559 544.966 72.8719C544.335 74.469 543.311 76.5341 541.894 79.0672C540.47 81.5047 539.08 83.7945 537.725 85.9367C536.363 87.9833 535.419 89.3186 534.896 89.9426C534.547 90.3586 533.749 91.1512 532.502 92.3203C531.351 93.481 530.272 94.9245 529.267 96.6507C527.164 99.0511 525.082 100.582 523.02 101.245C520.957 101.907 519.302 101.714 518.054 100.667ZM582.312 99.8155C579.586 101.692 576.609 102.916 573.383 103.488C570.243 103.955 567.241 103.784 564.376 102.975C561.502 102.07 559.108 100.593 557.194 98.5439C556.129 97.3843 555.049 95.5033 553.954 92.9008C552.851 90.2027 552.381 86.4855 552.545 81.7492C552.734 77.2998 553.683 72.7357 555.394 68.0568C557.2 63.3695 559.531 59.1664 562.386 55.4474C565.24 51.7285 568.478 49.0842 572.099 47.5147C573.396 46.9193 574.706 46.4675 576.028 46.1591C577.438 45.7467 579.298 45.5357 581.61 45.5262C583.835 45.6206 585.846 46.0229 587.642 46.733C589.431 47.3475 590.749 48.0994 591.598 48.9888C593.262 50.3851 594.396 51.7796 595 53.1723C595.603 54.565 595.916 55.9349 595.937 57.2822C595.727 60.3843 594.629 63.8051 592.643 67.5444C590.753 71.2753 587.875 74.1772 584.009 76.25C582.442 77.0617 580.567 77.6594 578.384 78.0431C576.201 78.4268 573.163 78.4034 569.271 77.973C566.934 77.6957 565.425 78.0686 564.743 79.0919C564.158 80.1068 564.034 81.9968 564.372 84.7618C564.714 86.4665 565.23 87.9632 565.921 89.2519C566.7 90.4366 567.97 91.1927 569.734 91.5203C571.967 91.7104 573.549 91.6201 574.48 91.2496C575.403 90.7834 576.552 90.1528 577.928 89.3578C578.652 88.8127 579.323 88.224 579.942 87.5916C580.657 86.9509 581.324 86.3143 581.943 85.6819C582.658 85.0412 583.242 84.5564 583.695 84.2277C584.14 83.8033 584.597 83.5224 585.067 83.3849C585.537 83.2475 586.011 83.1578 586.489 83.116C587.549 83.1196 588.604 83.6055 589.652 84.5739C590.7 85.5422 591.41 86.4919 591.78 87.4232C591.847 88.1883 591.465 89.3299 590.635 90.8481C589.795 92.2706 588.63 93.8181 587.138 95.4905C585.733 97.0589 584.125 98.5006 582.312 99.8155ZM577.649 67.9889C578.293 67.6434 579.191 66.8903 580.342 65.7295C581.589 64.5604 582.688 63.356 583.64 62.1164C584.583 60.7811 585.025 59.7787 584.967 59.1093C584.875 58.0573 584.078 57.2115 582.577 56.572C581.171 55.924 579.389 55.9354 577.231 56.606C576.483 56.8642 575.62 57.4697 574.644 58.4224C573.667 59.3751 572.703 60.4714 571.751 61.711C570.791 62.855 569.975 63.9865 569.302 65.1054C568.62 66.1287 568.161 66.9398 567.925 67.5387C568.349 67.9834 569.148 68.299 570.32 68.4855C571.493 68.672 572.749 68.7067 574.088 68.5895C575.522 68.464 576.709 68.2638 577.649 67.9889Z" fill="#4092E2" fill-opacity="0.16"/>
</svg>
